<svg width="1895" height="309" viewBox="0 0 1895 309" fill="none" xmlns="http://www.w3.org/2000/svg">
<path d="M1834.95 304.544C1824.08 304.544 1818.64 300.541 1818.64 292.534C1818.64 245.923 1818.64 199.884 1818.64 154.417C1818.64 108.664 1818.64 62.0524 1818.64 14.5835C1818.64 7.72053 1824.08 4.28906 1834.95 4.28906C1846.22 4.28906 1851.86 7.72053 1851.86 14.5835V292.534C1851.86 295.966 1850.45 298.825 1847.63 301.113C1844.81 303.401 1840.58 304.544 1834.95 304.544ZM1538.38 304.544C1527.51 304.544 1522.07 300.541 1522.07 292.534C1522.07 245.923 1522.07 199.884 1522.07 154.417C1522.07 108.664 1522.07 62.0524 1522.07 14.5835C1522.07 7.72053 1527.51 4.28906 1538.38 4.28906C1549.66 4.28906 1555.29 7.72053 1555.29 14.5835V292.534C1555.29 295.966 1553.89 298.825 1551.07 301.113C1548.25 303.401 1544.02 304.544 1538.38 304.544ZM1495.5 160.851C1485.03 160.851 1479.79 157.276 1479.79 150.127C1479.79 142.978 1485.03 139.404 1495.5 139.404H1878.43C1888.9 139.404 1894.14 142.978 1894.14 150.127C1894.14 157.276 1888.9 160.851 1878.43 160.851H1495.5ZM1552.88 119.244C1545.63 119.244 1542.01 116.813 1542.01 111.952C1542.01 106.805 1545.63 104.231 1552.88 104.231H1821.05C1828.3 104.231 1831.93 106.805 1831.93 111.952C1831.93 116.813 1828.3 119.244 1821.05 119.244H1552.88ZM1493.08 272.374C1493.08 269.229 1494.49 266.798 1497.31 265.082C1500.13 263.081 1503.95 262.08 1508.79 262.08H1538.38C1543.21 262.08 1547.04 262.938 1549.86 264.653C1552.68 266.655 1554.09 269.229 1554.09 272.374C1554.09 275.806 1552.68 278.522 1549.86 280.524C1547.04 282.24 1543.21 283.098 1538.38 283.098H1508.79C1503.95 283.098 1500.13 282.097 1497.31 280.095C1494.49 278.379 1493.08 275.806 1493.08 272.374ZM1586.1 272.374C1586.1 275.806 1584.69 278.379 1581.87 280.095C1579.05 282.097 1575.23 283.098 1570.4 283.098H1540.8C1536.37 283.098 1532.54 282.24 1529.32 280.524C1526.5 278.522 1525.09 275.806 1525.09 272.374C1525.09 269.229 1526.5 266.655 1529.32 264.653C1532.54 262.938 1536.37 262.08 1540.8 262.08H1570.4C1575.23 262.08 1579.05 263.081 1581.87 265.082C1584.69 266.798 1586.1 269.229 1586.1 272.374ZM1786.63 272.374C1786.63 269.229 1788.04 266.798 1790.85 265.082C1793.67 263.081 1797.5 262.08 1802.33 262.08H1831.93C1836.76 262.08 1840.58 262.938 1843.4 264.653C1846.22 266.655 1847.63 269.229 1847.63 272.374C1847.63 275.806 1846.22 278.522 1843.4 280.524C1840.58 282.24 1836.76 283.098 1831.93 283.098H1802.33C1797.5 283.098 1793.67 282.097 1790.85 280.095C1788.04 278.379 1786.63 275.806 1786.63 272.374ZM1879.64 272.374C1879.64 275.806 1878.23 278.379 1875.42 280.095C1872.6 282.097 1868.77 283.098 1863.94 283.098H1834.34C1829.91 283.098 1826.09 282.24 1822.87 280.524C1820.05 278.522 1818.64 275.806 1818.64 272.374C1818.64 269.229 1820.05 266.655 1822.87 264.653C1826.09 262.938 1829.91 262.08 1834.34 262.08H1863.94C1868.77 262.08 1872.6 263.081 1875.42 265.082C1878.23 266.798 1879.64 269.229 1879.64 272.374ZM1493.08 36.4593C1493.08 33.0278 1494.49 30.4542 1497.31 28.7384C1500.13 26.7367 1503.95 25.7359 1508.79 25.7359H1538.38C1543.21 25.7359 1547.04 26.5937 1549.86 28.3095C1552.68 30.3112 1554.09 33.0278 1554.09 36.4593C1554.09 39.6048 1552.68 42.1784 1549.86 44.1801C1547.04 45.8959 1543.21 46.7538 1538.38 46.7538H1508.79C1503.95 46.7538 1500.13 45.7529 1497.31 43.7512C1494.49 42.0354 1493.08 39.6048 1493.08 36.4593ZM1586.1 36.4593C1586.1 39.6048 1584.69 42.0354 1581.87 43.7512C1579.05 45.7529 1575.23 46.7538 1570.4 46.7538H1540.8C1536.37 46.7538 1532.54 45.8959 1529.32 44.1801C1526.5 42.1784 1525.09 39.6048 1525.09 36.4593C1525.09 33.0278 1526.5 30.3112 1529.32 28.3095C1532.54 26.5937 1536.37 25.7359 1540.8 25.7359H1570.4C1575.23 25.7359 1579.05 26.7367 1581.87 28.7384C1584.69 30.4542 1586.1 33.0278 1586.1 36.4593ZM1786.63 36.4593C1786.63 33.0278 1788.04 30.4542 1790.85 28.7384C1793.67 26.7367 1797.5 25.7359 1802.33 25.7359H1831.93C1836.76 25.7359 1840.58 26.5937 1843.4 28.3095C1846.22 30.3112 1847.63 33.0278 1847.63 36.4593C1847.63 39.6048 1846.22 42.1784 1843.4 44.1801C1840.58 45.8959 1836.76 46.7538 1831.93 46.7538H1802.33C1797.5 46.7538 1793.67 45.7529 1790.85 43.7512C1788.04 42.0354 1786.63 39.6048 1786.63 36.4593ZM1879.64 36.4593C1879.64 39.6048 1878.23 42.0354 1875.42 43.7512C1872.6 45.7529 1868.77 46.7538 1863.94 46.7538H1834.34C1829.91 46.7538 1826.09 45.8959 1822.87 44.1801C1820.05 42.1784 1818.64 39.6048 1818.64 36.4593C1818.64 33.0278 1820.05 30.3112 1822.87 28.3095C1826.09 26.5937 1829.91 25.7359 1834.34 25.7359H1863.94C1868.77 25.7359 1872.6 26.7367 1875.42 28.7384C1878.23 30.4542 1879.64 33.0278 1879.64 36.4593ZM1682.74 157.848C1677.5 154.989 1676.7 151.7 1680.32 147.983L1720.19 107.663C1723.81 103.659 1728.84 103.23 1735.29 106.376C1740.52 109.235 1741.33 112.524 1737.7 116.241L1697.84 156.561C1696.23 157.991 1694.01 158.992 1691.19 159.564C1688.78 159.85 1685.96 159.278 1682.74 157.848ZM1623.55 157.848C1618.31 154.989 1617.51 151.7 1621.13 147.983L1660.99 107.663C1664.62 103.659 1669.65 103.23 1676.09 106.376C1681.33 109.235 1682.13 112.524 1678.51 116.241L1638.65 156.561C1637.04 157.991 1634.82 158.992 1632 159.564C1629.59 159.85 1626.77 159.278 1623.55 157.848ZM1802.33 111.952C1802.33 116.813 1798.91 119.244 1792.06 119.244H1591.54C1584.69 119.244 1581.27 116.813 1581.27 111.952C1581.27 106.805 1584.49 104.231 1590.93 104.231H1791.46C1798.71 104.231 1802.33 106.805 1802.33 111.952ZM1802.33 153.13C1802.33 157.991 1798.91 160.422 1792.06 160.422H1591.54C1584.69 160.422 1581.27 157.991 1581.27 153.13C1581.27 147.983 1584.49 145.409 1590.93 145.409H1791.46C1798.71 145.409 1802.33 147.983 1802.33 153.13Z" fill="white"/>
<path d="M1273.41 308.834C1260.12 308.834 1245.82 307.69 1230.52 305.403C1215.22 303.401 1200.12 299.826 1185.22 294.679C1170.73 289.246 1158.24 281.811 1147.78 272.374C1137.31 262.938 1130.26 250.928 1126.64 236.344C1126.23 235.486 1126.03 234.628 1126.03 233.77C1126.03 232.912 1126.03 232.054 1126.03 231.197C1126.03 224.334 1131.06 220.902 1141.13 220.902C1146.77 220.902 1151 222.046 1153.82 224.334C1156.63 226.621 1158.85 230.053 1160.46 234.628C1164.08 245.78 1171.53 255.074 1182.81 262.509C1194.08 269.944 1207.37 275.663 1222.67 279.666C1238.38 283.384 1254.28 285.243 1270.39 285.243C1290.12 285.243 1308.84 282.669 1326.56 277.522C1344.28 272.374 1358.77 265.225 1370.05 256.075C1381.32 246.638 1386.96 235.629 1386.96 223.047C1386.96 211.037 1382.53 201.457 1373.67 194.308C1364.81 186.873 1352.93 181.011 1338.04 176.722C1323.54 172.432 1307.43 168.715 1289.72 165.569C1272.4 162.424 1254.88 159.135 1237.17 155.704C1219.85 151.986 1203.75 147.268 1188.85 141.549C1174.35 135.544 1162.67 127.68 1153.82 117.957C1144.96 107.949 1140.53 95.0808 1140.53 79.3532C1140.53 61.9098 1147.17 47.326 1160.46 35.6017C1173.75 23.8775 1190.46 15.0128 1210.59 9.00767C1231.13 3.00256 1251.66 0 1272.2 0C1291.53 0 1309.85 2.43064 1327.16 7.29192C1344.48 11.8672 1359.38 18.3013 1371.86 26.5941C1384.34 34.6009 1392.4 44.0374 1396.02 54.9038C1396.82 57.1915 1397.23 59.0502 1397.23 60.48C1397.23 66.1992 1393.8 69.4877 1386.96 70.3455C1385.75 70.6315 1384.14 70.7745 1382.13 70.7745C1376.89 70.4885 1372.66 69.3447 1369.44 67.343C1366.62 65.0553 1364.01 62.0527 1361.59 58.3353C1356.36 50.0425 1345.69 42.1787 1329.58 34.7438C1313.88 27.3089 1294.75 23.5915 1272.2 23.5915C1257.3 23.5915 1242.2 25.7362 1226.9 30.0255C1211.6 34.0289 1198.71 40.177 1188.24 48.4698C1177.77 56.4766 1172.54 66.6281 1172.54 78.9242C1172.54 91.7923 1176.97 102.087 1185.83 109.808C1194.69 117.243 1206.36 123.105 1220.86 127.394C1235.36 131.683 1251.26 135.401 1268.58 138.546C1285.89 141.406 1303.2 144.551 1320.52 147.983C1338.24 151.414 1354.34 155.99 1368.84 161.709C1383.34 167.428 1395.01 175.149 1403.87 184.871C1412.73 194.594 1417.16 207.319 1417.16 223.047C1417.16 241.348 1410.92 256.933 1398.44 269.801C1385.95 282.383 1368.84 292.105 1347.1 298.968C1325.75 305.545 1301.19 308.834 1273.41 308.834ZM1186.43 39.8911C1186.43 51.9013 1190.46 61.6238 1198.51 69.0587C1206.97 76.2076 1218.04 82.0698 1231.73 86.6451C1245.82 91.2204 1260.92 95.5098 1277.03 99.5132C1293.54 103.517 1309.85 108.235 1325.96 113.668C1342.46 118.815 1357.56 125.821 1371.26 134.686C1385.35 143.265 1396.42 154.703 1404.48 169.001C1412.93 183.013 1417.16 201.028 1417.16 223.047H1396.02C1396.02 202.458 1391.79 185.729 1383.34 172.861C1375.28 159.707 1364.21 149.413 1350.12 141.978C1336.42 134.543 1321.32 128.538 1304.82 123.963C1288.71 119.387 1272.4 115.241 1255.89 111.523C1239.78 107.806 1224.68 103.374 1210.59 98.2264C1196.9 93.0791 1185.83 86.0732 1177.37 77.2085C1169.32 68.0579 1165.29 55.9047 1165.29 40.749L1186.43 39.8911ZM1211.8 137.26C1204.55 137.26 1200.93 134.829 1200.93 129.968V89.6476C1200.93 84.7864 1204.35 82.3557 1211.2 82.3557C1219.25 82.3557 1223.28 84.6434 1223.28 89.2187V129.539C1223.28 134.686 1219.45 137.26 1211.8 137.26ZM1257.7 153.559C1250.46 153.559 1246.83 151.128 1246.83 146.267V105.947C1246.83 101.086 1250.25 98.6553 1257.1 98.6553C1265.15 98.6553 1269.18 100.943 1269.18 105.518V145.838C1269.18 150.986 1265.35 153.559 1257.7 153.559ZM1306.63 165.14C1299.38 165.14 1295.76 162.71 1295.76 157.848V117.528C1295.76 112.667 1299.18 110.237 1306.02 110.237C1314.08 110.237 1318.1 112.524 1318.1 117.1V157.42C1318.1 162.567 1314.28 165.14 1306.63 165.14Z" fill="white"/>
<path d="M1049.01 304.544C1046.19 304.544 1043.37 304.115 1040.56 303.258C1038.14 302.114 1036.13 300.112 1034.52 297.252L920.963 62.6244C919.352 58.621 917.943 55.9044 916.735 54.4746C915.527 53.0448 913.715 52.3299 911.299 52.3299C908.078 52.3299 904.857 55.7614 901.635 62.6244L786.875 297.252C784.459 302.114 779.828 304.544 772.983 304.544C766.54 304.544 761.709 303.543 758.487 301.542C755.669 299.54 754.259 297.109 754.259 294.25C754.259 293.106 754.662 291.676 755.467 289.961L891.971 23.1623C892.777 21.4465 893.783 20.5886 894.991 20.5886C896.199 20.5886 899.018 20.5886 903.447 20.5886C908.279 20.5886 913.111 20.5886 917.943 20.5886C922.775 20.5886 925.594 20.5886 926.399 20.5886C927.607 20.5886 928.614 21.3035 929.419 22.7333L1065.32 288.245C1066.12 289.961 1066.53 291.533 1066.53 292.963C1066.53 296.681 1064.51 299.54 1060.49 301.542C1056.46 303.543 1052.64 304.544 1049.01 304.544ZM775.399 197.739C771.373 197.739 767.748 196.738 764.527 194.737C761.708 192.449 760.299 189.875 760.299 187.016C760.299 183.87 761.708 181.297 764.527 179.295C767.748 177.293 771.373 176.292 775.399 176.292H1046.6C1051.02 176.292 1054.65 177.293 1057.47 179.295C1060.29 181.297 1061.7 183.87 1061.7 187.016C1061.7 189.875 1060.29 192.449 1057.47 194.737C1054.65 196.738 1051.02 197.739 1046.6 197.739H775.399ZM735.535 272.374C735.535 269.229 736.944 266.798 739.763 265.082C742.582 263.081 746.407 262.08 751.239 262.08H780.835C785.667 262.08 789.492 262.938 792.311 264.653C795.13 266.655 796.539 269.229 796.539 272.374C796.539 275.806 795.13 278.522 792.311 280.524C789.492 282.24 785.667 283.098 780.835 283.098H751.239C746.407 283.098 742.582 282.097 739.763 280.095C736.944 278.379 735.535 275.806 735.535 272.374ZM828.551 272.374C828.551 275.806 827.142 278.379 824.323 280.095C821.505 282.097 817.679 283.098 812.847 283.098H783.251C778.822 283.098 774.996 282.24 771.775 280.524C768.956 278.522 767.547 275.806 767.547 272.374C767.547 269.229 768.956 266.655 771.775 264.653C774.996 262.938 778.822 262.08 783.251 262.08H812.847C817.679 262.08 821.505 263.081 824.323 265.082C827.142 266.798 828.551 269.229 828.551 272.374ZM994.047 272.374C994.047 269.229 995.456 266.798 998.275 265.082C1001.09 263.081 1004.92 262.08 1009.75 262.08H1039.35C1044.18 262.08 1048 262.938 1050.82 264.653C1053.64 266.655 1055.05 269.229 1055.05 272.374C1055.05 275.806 1053.64 278.522 1050.82 280.524C1048 282.24 1044.18 283.098 1039.35 283.098H1009.75C1004.92 283.098 1001.09 282.097 998.275 280.095C995.456 278.379 994.047 275.806 994.047 272.374ZM1087.06 272.374C1087.06 275.806 1085.65 278.379 1082.84 280.095C1080.02 282.097 1076.19 283.098 1071.36 283.098H1041.76C1037.33 283.098 1033.51 282.24 1030.29 280.524C1027.47 278.522 1026.06 275.806 1026.06 272.374C1026.06 269.229 1027.47 266.655 1030.29 264.653C1033.51 262.938 1037.33 262.08 1041.76 262.08H1071.36C1076.19 262.08 1080.02 263.081 1082.84 265.082C1085.65 266.798 1087.06 269.229 1087.06 272.374ZM864.791 15.0125C864.791 11.581 866.2 9.00735 869.019 7.29161C871.838 5.2899 875.663 4.28906 880.495 4.28906H910.091C914.923 4.28906 918.748 5.14694 921.567 6.8627C924.386 8.86439 925.795 11.581 925.795 15.0125C925.795 18.158 924.386 20.7316 921.567 22.7333C918.748 24.4491 914.923 25.3069 910.091 25.3069H880.495C875.663 25.3069 871.838 24.3061 869.019 22.3044C866.2 20.5886 864.791 18.158 864.791 15.0125ZM957.807 15.0125C957.807 18.158 956.398 20.5886 953.579 22.3044C950.76 24.3061 946.935 25.3069 942.103 25.3069H912.507C908.078 25.3069 904.252 24.4491 901.031 22.7333C898.212 20.7316 896.803 18.158 896.803 15.0125C896.803 11.581 898.212 8.86439 901.031 6.8627C904.252 5.14694 908.078 4.28906 912.507 4.28906H942.103C946.935 4.28906 950.76 5.2899 953.579 7.29161C956.398 9.00735 957.807 11.581 957.807 15.0125ZM983.779 57.0482C983.779 61.9095 980.357 64.3401 973.511 64.3401H850.295C843.45 64.3401 840.027 61.9095 840.027 57.0482C840.027 51.901 843.248 49.3274 849.691 49.3274H972.907C980.155 49.3274 983.779 51.901 983.779 57.0482ZM981.967 80.2108C975.524 80.2108 972.303 77.7801 972.303 72.9189V58.335C972.303 55.7614 973.109 53.9027 974.719 52.7589C976.33 51.615 978.947 51.0431 982.571 51.0431C986.598 51.0431 989.416 51.615 991.027 52.7589C992.235 53.6167 992.839 55.3325 992.839 57.9061V72.4899C992.839 77.6371 989.215 80.2108 981.967 80.2108ZM981.967 33.8857C989.215 33.8857 992.839 36.4593 992.839 41.6065V56.1903C992.839 58.7639 992.235 60.4797 991.027 61.3376C989.416 62.4814 986.598 63.0533 982.571 63.0533C978.947 63.0533 976.33 62.4814 974.719 61.3376C973.109 60.1937 972.303 58.335 972.303 55.7614V41.1776C972.303 36.3163 975.524 33.8857 981.967 33.8857ZM851.503 72.9189C851.503 77.7801 848.282 80.2108 841.839 80.2108C834.591 80.2108 830.967 77.6371 830.967 72.4899V57.9061C830.967 55.3325 831.571 53.6167 832.779 52.7589C834.39 51.615 837.209 51.0431 841.235 51.0431C844.859 51.0431 847.476 51.615 849.087 52.7589C850.698 53.9027 851.503 55.7614 851.503 58.335V72.9189ZM830.967 41.1776C830.967 36.0303 834.591 33.4567 841.839 33.4567C848.282 33.4567 851.503 35.8874 851.503 40.7487V55.3325C851.503 57.9061 850.698 59.7648 849.087 60.9086C847.476 62.0525 844.859 62.6244 841.235 62.6244C837.209 62.6244 834.39 62.0525 832.779 60.9086C831.571 60.0507 830.967 58.335 830.967 55.7614V41.1776ZM910.091 236.344C904.857 233.484 904.051 230.195 907.675 226.478L947.539 186.158C951.163 182.155 956.196 181.726 962.639 184.871C967.874 187.731 968.679 191.019 965.055 194.737L925.191 235.057C923.58 236.486 921.366 237.487 918.547 238.059C916.131 238.345 913.313 237.773 910.091 236.344ZM850.899 236.344C845.665 233.484 844.859 230.195 848.483 226.478L888.347 186.158C891.971 182.155 897.004 181.726 903.447 184.871C908.682 187.731 909.487 191.019 905.863 194.737L865.999 235.057C864.388 236.486 862.174 237.487 859.355 238.059C856.939 238.345 854.121 237.773 850.899 236.344ZM1029.68 190.447C1029.68 195.309 1026.26 197.739 1019.42 197.739H818.887C812.042 197.739 808.619 195.309 808.619 190.447C808.619 185.3 811.84 182.726 818.283 182.726H1018.81C1026.06 182.726 1029.68 185.3 1029.68 190.447ZM1029.68 231.625C1029.68 236.486 1026.26 238.917 1019.42 238.917H818.887C812.042 238.917 808.619 236.486 808.619 231.625C808.619 226.478 811.84 223.904 818.283 223.904H1018.81C1026.06 223.904 1029.68 226.478 1029.68 231.625Z" fill="white"/>
<path d="M671.605 304.544C666.773 304.544 662.747 303.258 659.525 300.684C656.304 298.11 654.492 294.822 654.089 290.818C652.881 264.51 648.855 242.778 642.009 225.62C635.164 208.463 624.896 194.88 611.205 184.871C597.515 174.863 579.395 167.714 556.845 163.424C534.296 159.135 506.512 156.704 473.493 156.132L441.481 178.437L414.301 162.138L642.613 9.43631C646.237 6.86269 650.264 5.57588 654.693 5.57588C661.136 5.57588 665.565 6.86269 667.981 9.43631C670.8 11.724 672.209 13.8686 672.209 15.8703C672.209 18.158 671.605 20.1597 670.397 21.8754C669.189 23.3052 667.579 24.735 665.565 26.1648L501.277 135.972C547.181 137.116 583.623 142.835 610.601 153.13C637.983 163.424 657.512 179.724 669.189 202.029C681.269 224.333 687.309 254.073 687.309 291.247C687.309 294.965 685.699 298.11 682.477 300.684C679.659 303.258 676.035 304.544 671.605 304.544ZM427.589 304.544C416.717 304.544 411.281 300.827 411.281 293.392V15.4414C411.281 8.00651 416.717 4.28906 427.589 4.28906C438.864 4.28906 444.501 8.00651 444.501 15.4414V293.392C444.501 300.827 438.864 304.544 427.589 304.544ZM417.925 297.252C417.925 292.105 421.549 289.532 428.797 289.532H491.009C498.257 289.532 501.881 292.105 501.881 297.252C501.881 302.114 498.056 304.544 490.405 304.544H428.193C421.348 304.544 417.925 302.114 417.925 297.252ZM418.529 12.0099C418.529 6.86266 422.153 4.28906 429.401 4.28906H491.613C498.861 4.28906 502.485 6.86266 502.485 12.0099C502.485 16.8712 498.66 19.3018 491.009 19.3018H428.797C421.952 19.3018 418.529 16.8712 418.529 12.0099ZM491.613 132.112C484.768 132.112 481.345 129.681 481.345 124.82V11.581C481.345 6.7197 484.768 4.28906 491.613 4.28906C498.861 4.28906 502.485 6.57671 502.485 11.152V124.391C502.485 129.538 498.861 132.112 491.613 132.112ZM458.997 68.2006C458.997 63.3393 462.42 60.9086 469.265 60.9086H513.961C521.612 60.9086 525.437 63.3393 525.437 68.2006C525.437 73.3478 521.813 75.9214 514.565 75.9214H469.869C462.621 75.9214 458.997 73.3478 458.997 68.2006ZM458.997 68.2006C458.997 63.3393 462.42 60.9086 469.265 60.9086H513.961C521.612 60.9086 525.437 63.3393 525.437 68.2006C525.437 73.3478 521.813 75.9214 514.565 75.9214H469.869C462.621 75.9214 458.997 73.3478 458.997 68.2006ZM498.861 219.615C500.875 221.617 501.479 223.618 500.673 225.62C500.271 227.622 499.063 229.195 497.049 230.338L440.273 258.648C435.039 261.222 430.408 260.65 426.381 256.932C421.952 252.357 422.556 248.783 428.193 246.209L484.969 217.899C490.204 215.326 494.835 215.898 498.861 219.615ZM498.861 177.579C500.875 179.581 501.479 181.583 500.673 183.584C500.271 185.586 499.063 187.159 497.049 188.303L440.273 216.612C435.039 219.186 430.408 218.614 426.381 214.897C421.952 210.321 422.556 206.747 428.193 204.173L484.969 175.864C490.204 173.29 494.835 173.862 498.861 177.579ZM434.233 304.544C426.985 304.544 423.361 301.971 423.361 296.823V154.417C423.361 149.841 426.985 147.554 434.233 147.554C441.079 147.554 444.501 149.984 444.501 154.846V297.252C444.501 302.114 441.079 304.544 434.233 304.544ZM492.217 304.544C484.969 304.544 481.345 301.971 481.345 296.823V154.417C481.345 149.841 484.969 147.554 492.217 147.554C499.063 147.554 502.485 149.984 502.485 154.846V297.252C502.485 302.114 499.063 304.544 492.217 304.544Z" fill="white"/>
<path d="M313.476 304.544C310.657 304.544 307.839 304.115 305.02 303.258C302.604 302.114 300.591 300.112 298.98 297.252L185.428 62.6244C183.817 58.621 182.408 55.9044 181.2 54.4746C179.992 53.0448 178.18 52.3299 175.764 52.3299C172.543 52.3299 169.321 55.7614 166.1 62.6244L51.34 297.252C48.924 302.114 44.2933 304.544 37.448 304.544C31.0053 304.544 26.1733 303.543 22.952 301.542C20.1333 299.54 18.724 297.109 18.724 294.25C18.724 293.106 19.1267 291.676 19.932 289.961L156.436 23.1623C157.241 21.4465 158.248 20.5886 159.456 20.5886C160.664 20.5886 163.483 20.5886 167.912 20.5886C172.744 20.5886 177.576 20.5886 182.408 20.5886C187.24 20.5886 190.059 20.5886 190.864 20.5886C192.072 20.5886 193.079 21.3035 193.884 22.7333L329.784 288.245C330.589 289.961 330.992 291.533 330.992 292.963C330.992 296.681 328.979 299.54 324.952 301.542C320.925 303.543 317.1 304.544 313.476 304.544ZM39.864 197.739C35.8373 197.739 32.2133 196.738 28.992 194.737C26.1733 192.449 24.764 189.875 24.764 187.016C24.764 183.87 26.1733 181.297 28.992 179.295C32.2133 177.293 35.8373 176.292 39.864 176.292H311.06C315.489 176.292 319.113 177.293 321.932 179.295C324.751 181.297 326.16 183.87 326.16 187.016C326.16 189.875 324.751 192.449 321.932 194.737C319.113 196.738 315.489 197.739 311.06 197.739H39.864ZM0 272.374C0 269.229 1.40933 266.798 4.228 265.082C7.04667 263.081 10.872 262.08 15.704 262.08H45.3C50.132 262.08 53.9573 262.938 56.776 264.653C59.5947 266.655 61.004 269.229 61.004 272.374C61.004 275.806 59.5947 278.522 56.776 280.524C53.9573 282.24 50.132 283.098 45.3 283.098H15.704C10.872 283.098 7.04667 282.097 4.228 280.095C1.40933 278.379 0 275.806 0 272.374ZM93.016 272.374C93.016 275.806 91.6067 278.379 88.788 280.095C85.9693 282.097 82.144 283.098 77.312 283.098H47.716C43.2867 283.098 39.4613 282.24 36.24 280.524C33.4213 278.522 32.012 275.806 32.012 272.374C32.012 269.229 33.4213 266.655 36.24 264.653C39.4613 262.938 43.2867 262.08 47.716 262.08H77.312C82.144 262.08 85.9693 263.081 88.788 265.082C91.6067 266.798 93.016 269.229 93.016 272.374ZM258.512 272.374C258.512 269.229 259.921 266.798 262.74 265.082C265.559 263.081 269.384 262.08 274.216 262.08H303.812C308.644 262.08 312.469 262.938 315.288 264.653C318.107 266.655 319.516 269.229 319.516 272.374C319.516 275.806 318.107 278.522 315.288 280.524C312.469 282.24 308.644 283.098 303.812 283.098H274.216C269.384 283.098 265.559 282.097 262.74 280.095C259.921 278.379 258.512 275.806 258.512 272.374ZM351.528 272.374C351.528 275.806 350.119 278.379 347.3 280.095C344.481 282.097 340.656 283.098 335.824 283.098H306.228C301.799 283.098 297.973 282.24 294.752 280.524C291.933 278.522 290.524 275.806 290.524 272.374C290.524 269.229 291.933 266.655 294.752 264.653C297.973 262.938 301.799 262.08 306.228 262.08H335.824C340.656 262.08 344.481 263.081 347.3 265.082C350.119 266.798 351.528 269.229 351.528 272.374ZM129.256 15.0125C129.256 11.581 130.665 9.00735 133.484 7.29161C136.303 5.2899 140.128 4.28906 144.96 4.28906H174.556C179.388 4.28906 183.213 5.14694 186.032 6.8627C188.851 8.86439 190.26 11.581 190.26 15.0125C190.26 18.158 188.851 20.7316 186.032 22.7333C183.213 24.4491 179.388 25.3069 174.556 25.3069H144.96C140.128 25.3069 136.303 24.3061 133.484 22.3044C130.665 20.5886 129.256 18.158 129.256 15.0125ZM222.272 15.0125C222.272 18.158 220.863 20.5886 218.044 22.3044C215.225 24.3061 211.4 25.3069 206.568 25.3069H176.972C172.543 25.3069 168.717 24.4491 165.496 22.7333C162.677 20.7316 161.268 18.158 161.268 15.0125C161.268 11.581 162.677 8.86439 165.496 6.8627C168.717 5.14694 172.543 4.28906 176.972 4.28906H206.568C211.4 4.28906 215.225 5.2899 218.044 7.29161C220.863 9.00735 222.272 11.581 222.272 15.0125ZM248.244 57.0482C248.244 61.9095 244.821 64.3401 237.976 64.3401H114.76C107.915 64.3401 104.492 61.9095 104.492 57.0482C104.492 51.901 107.713 49.3274 114.156 49.3274H237.372C244.62 49.3274 248.244 51.901 248.244 57.0482ZM246.432 80.2108C239.989 80.2108 236.768 77.7801 236.768 72.9189V58.335C236.768 55.7614 237.573 53.9027 239.184 52.7589C240.795 51.615 243.412 51.0431 247.036 51.0431C251.063 51.0431 253.881 51.615 255.492 52.7589C256.7 53.6167 257.304 55.3325 257.304 57.9061V72.4899C257.304 77.6371 253.68 80.2108 246.432 80.2108ZM246.432 33.8857C253.68 33.8857 257.304 36.4593 257.304 41.6065V56.1903C257.304 58.7639 256.7 60.4797 255.492 61.3376C253.881 62.4814 251.063 63.0533 247.036 63.0533C243.412 63.0533 240.795 62.4814 239.184 61.3376C237.573 60.1937 236.768 58.335 236.768 55.7614V41.1776C236.768 36.3163 239.989 33.8857 246.432 33.8857ZM115.968 72.9189C115.968 77.7801 112.747 80.2108 106.304 80.2108C99.056 80.2108 95.432 77.6371 95.432 72.4899V57.9061C95.432 55.3325 96.036 53.6167 97.244 52.7589C98.8547 51.615 101.673 51.0431 105.7 51.0431C109.324 51.0431 111.941 51.615 113.552 52.7589C115.163 53.9027 115.968 55.7614 115.968 58.335V72.9189ZM95.432 41.1776C95.432 36.0303 99.056 33.4567 106.304 33.4567C112.747 33.4567 115.968 35.8874 115.968 40.7487V55.3325C115.968 57.9061 115.163 59.7648 113.552 60.9086C111.941 62.0525 109.324 62.6244 105.7 62.6244C101.673 62.6244 98.8547 62.0525 97.244 60.9086C96.036 60.0507 95.432 58.335 95.432 55.7614V41.1776ZM174.556 236.344C169.321 233.484 168.516 230.195 172.14 226.478L212.004 186.158C215.628 182.155 220.661 181.726 227.104 184.871C232.339 187.731 233.144 191.019 229.52 194.737L189.656 235.057C188.045 236.486 185.831 237.487 183.012 238.059C180.596 238.345 177.777 237.773 174.556 236.344ZM115.364 236.344C110.129 233.484 109.324 230.195 112.948 226.478L152.812 186.158C156.436 182.155 161.469 181.726 167.912 184.871C173.147 187.731 173.952 191.019 170.328 194.737L130.464 235.057C128.853 236.486 126.639 237.487 123.82 238.059C121.404 238.345 118.585 237.773 115.364 236.344ZM294.148 190.447C294.148 195.309 290.725 197.739 283.88 197.739H83.352C76.5067 197.739 73.084 195.309 73.084 190.447C73.084 185.3 76.3053 182.726 82.748 182.726H283.276C290.524 182.726 294.148 185.3 294.148 190.447ZM294.148 231.625C294.148 236.486 290.725 238.917 283.88 238.917H83.352C76.5067 238.917 73.084 236.486 73.084 231.625C73.084 226.478 76.3053 223.904 82.748 223.904H283.276C290.524 223.904 294.148 226.478 294.148 231.625Z" fill="white"/>
</svg>
